<?xml version="1.0" encoding="UTF-8"?>
<svg width="45px" height="45px" viewBox="0 0 45 45" version="1.1" xmlns="http://www.w3.org/2000/svg" xmlns:xlink="http://www.w3.org/1999/xlink">
    <!-- Generator: Sketch 51.2 (57519) - http://www.bohemiancoding.com/sketch -->
    <title>Group 5</title>
    <desc>Created with Sketch.</desc>
    <defs></defs>
    <g id="Page-1" stroke="none" stroke-width="1" fill="none" fill-rule="evenodd">
        <g id="Upload-Copy-4" transform="translate(-618.000000, -265.000000)" fill="#000000" fill-rule="nonzero">
            <g id="Group-5" transform="translate(618.000000, 265.000000)">
                <g id="painting">
                    <path d="M44.2498398,45 L0.750160195,45 C0.336112998,45 0,44.664917 0,44.2498398 L0,0.750160195 C0,0.335083008 0.336112998,-2.84217094e-14 0.750160195,-2.84217094e-14 L44.2498398,-2.84217094e-14 C44.663887,-2.84217094e-14 45,0.335083008 45,0.750160195 L45,44.2498398 C45,44.664917 44.663887,45 44.2498398,45 Z M1.49997709,43.5000229 L43.5000229,43.5000229 L43.5000229,1.49997709 L1.49997709,1.49997709 L1.49997709,43.5000229 Z" id="Shape"></path>
                    <path d="M41.2498855,42.0000458 L3.75011446,42.0000458 C3.33606718,42.0000458 2.99995418,41.6646194 2.99995418,41.2498855 L2.99995418,3.75011446 C2.99995418,3.33538058 3.33606718,2.99995418 3.75011446,2.99995418 L41.2498855,2.99995418 C41.6639328,2.99995418 42.0000458,3.33538058 42.0000458,3.75011446 L42.0000458,41.2498855 C42.0000458,41.6646194 41.6639328,42.0000458 41.2498855,42.0000458 Z M4.49993136,40.5000686 L40.5000686,40.5000686 L40.5000686,4.49993136 L4.49993136,4.49993136 L4.49993136,40.5000686 Z" id="Shape"></path>
                </g>
                <g id="color-palette" transform="translate(7.000000, 8.000000)">
                    <path d="M29.1039276,21.7616272 L29.1039276,3.23226926 C29.1039276,1.44996645 27.6539612,0 25.8716583,0 C24.4535065,0 23.2466126,0.918502793 22.8121948,2.19154359 C20.466156,0.753707871 17.7937317,0 15,0 C10.9934235,0 7.22671512,1.56028746 4.39338686,4.39338686 C1.56028746,7.22671512 0,10.9934235 0,15 C0,19.0068054 1.56028746,22.7735138 4.39338686,25.6066131 C7.22671512,28.4397125 10.9934235,30 15.0002289,30 C15.8635712,30 16.6751862,29.6637726 17.2858429,29.0531159 C18.5458374,27.7928924 18.5458374,25.7423401 17.285614,24.4818878 C16.7106628,23.9069367 16.7106628,22.9714966 17.2858429,22.3963165 C17.4980163,22.1841431 17.7628327,22.0442962 18.0551147,21.9900513 L22.5897217,21.9900513 C21.9564056,23.3381653 22.1955872,24.9980163 23.3079529,26.110611 C23.4544372,26.2570954 23.5350036,26.4518737 23.5350036,26.6590119 C23.5350036,26.8661499 23.4544372,27.0609284 23.307724,27.2074127 C23.1614685,27.3538971 22.9669189,27.4344635 22.7597809,27.4344635 C22.5531006,27.4344635 22.3590088,27.3543548 22.2125244,27.208786 C22.2120667,27.2083283 22.2116089,27.2078705 22.2111511,27.2074127 C21.8678284,26.86409 21.3114166,26.8643188 20.9683228,27.2074127 C20.625,27.5507355 20.625,28.1071472 20.9683228,28.45047 C21.967392,29.4497681 23.2960511,30 24.7091675,30 C26.1222839,30 27.450943,29.4495392 28.4502411,28.45047 C29.4495392,27.450943 30,26.1222839 30,24.7091675 C30,23.6434937 29.6866608,22.6261139 29.1039276,21.7616272 Z M25.8716583,1.7578125 C26.6846466,1.7578125 27.346344,2.41928098 27.346344,3.23249818 L27.346344,20.2114105 C26.8899536,20.0099945 26.3928223,19.9033356 25.8792114,19.9033356 C25.3598786,19.9033356 24.8574829,20.0125122 24.3969727,20.2180481 L24.3969727,3.23226926 C24.3969727,2.41928098 25.0584411,1.7578125 25.8716583,1.7578125 Z M17.9837036,20.2322388 C17.9409027,20.2322388 17.8981018,20.2354431 17.8557587,20.241394 C17.1643066,20.3430176 16.5373993,20.6584167 16.0427856,21.1534881 C14.7823334,22.4139404 14.7825622,24.4647217 16.0427856,25.724945 C16.6175079,26.2998962 16.6175079,27.2353363 16.0427856,27.8102875 C15.7642365,28.0888366 15.3939056,28.2421875 15,28.2421875 C7.69821164,28.2421875 1.7578125,22.3017884 1.7578125,15 C1.7578125,7.69821164 7.69821164,1.7578125 15,1.7578125 C17.7669525,1.7578125 20.398407,2.59506223 22.6391602,4.18281557 L22.6391602,6.79252623 C22.1653747,6.43867494 21.5929413,6.24732973 20.9909821,6.24732973 C20.2532959,6.24732973 19.5597839,6.53457645 19.0381622,7.05619811 C17.9615021,8.13285826 17.9615021,9.88494873 19.0381622,10.9618378 C19.5597839,11.4834595 20.2532959,11.7707062 20.9909821,11.7707062 C21.5929413,11.7707062 22.1653747,11.579361 22.6391602,11.2255096 L22.6391602,20.2322388 L17.9837036,20.2322388 Z M21.7009735,9.71878055 C21.5112305,9.90852357 21.2592316,10.0128937 20.9909821,10.0128937 C20.7229614,10.0128937 20.4707337,9.90852357 20.2812195,9.71878055 C19.8898315,9.32739258 19.8898315,8.69041441 20.2812195,8.29925537 C20.4707337,8.10951234 20.7229614,8.00514223 20.9909821,8.00514223 C21.2592316,8.00514223 21.5112305,8.10951234 21.7009735,8.2990265 C22.0923615,8.69041441 22.0923615,9.32739258 21.7009735,9.71878055 Z M27.2074127,27.2074127 C26.5468597,27.8679657 25.6707001,28.2346344 24.7377777,28.2419586 C25.0975799,27.7942658 25.2930451,27.241745 25.2930451,26.6590119 C25.2930451,25.9822083 25.0293732,25.3461456 24.5510101,24.8677826 C23.8185882,24.1353607 23.8185882,22.943573 24.5510101,22.21138 C24.905777,21.8563843 25.3775024,21.6611481 25.8792114,21.6611481 C26.3809204,21.6611481 26.8526459,21.8563843 27.2074127,22.2111511 C27.8746032,22.8785706 28.2421875,23.7657165 28.2421875,24.7091675 C28.2421875,25.6528473 27.8746032,26.5399933 27.2074127,27.2074127 Z" id="Shape"></path>
                    <path d="M15,3.76556396 C13.4772492,3.76556396 12.2383118,5.00450133 12.2383118,6.52748109 C12.2383118,8.05023193 13.4772492,9.2891693 15,9.2891693 C16.5227508,9.2891693 17.7616882,8.05023193 17.7616882,6.52748109 C17.7616882,5.00450133 16.5227508,3.76556396 15,3.76556396 Z M15,7.53112793 C14.4463348,7.53112793 13.9961243,7.08091734 13.9961243,6.52725223 C13.9961243,5.97381592 14.4465637,5.52337646 15,5.52337646 C15.5534363,5.52337646 16.0038757,5.97381592 16.0038757,6.52748109 C16.0038757,7.08091734 15.5536652,7.53112793 15,7.53112793 Z" id="Shape"></path>
                    <path d="M9.2891693,15 C9.2891693,13.4772492 8.05023193,12.2383118 6.52748109,12.2383118 C5.00450133,12.2383118 3.76556396,13.4772492 3.76556396,15 C3.76556396,16.5227508 5.00450133,17.7616882 6.52748109,17.7616882 C8.05023193,17.7616882 9.2891693,16.5227508 9.2891693,15 Z M5.52337646,15 C5.52337646,14.4465637 5.97381592,13.9961243 6.52748109,13.9961243 C7.08091734,13.9961243 7.5313568,14.4465637 7.5313568,15 C7.5313568,15.5536652 7.08091734,16.0038757 6.52748109,16.0038757 C5.97381592,16.0038757 5.52337646,15.5536652 5.52337646,15 Z" id="Shape"></path>
                    <path d="M9.00878906,18.2292938 C8.27110289,18.2292938 7.57759096,18.5165405 7.05596924,19.0383911 C5.97930908,20.1150513 5.97930908,21.8671417 7.05596924,22.9440308 C7.57759096,23.4656525 8.27110289,23.7528991 9.00878906,23.7528991 C9.74647523,23.7528991 10.4399872,23.4656525 10.9616089,22.9438019 C12.038269,21.8671417 12.0384979,20.1150513 10.9616089,19.0383911 C10.4399872,18.5167694 9.74647523,18.2292938 9.00878906,18.2292938 Z M9.71878055,21.7009735 C9.52903746,21.8904877 9.27703857,21.9950866 9.00901793,21.9950866 C8.74076842,21.9950866 8.48854066,21.8904877 8.2990265,21.7009735 C7.90763854,21.3095856 7.90763854,20.6726074 8.2990265,20.2812195 C8.48854066,20.0917054 8.74076842,19.9871063 9.00878906,19.9871063 C9.27703857,19.9871063 9.52903746,20.0914764 9.71878055,20.2812195 C10.1101685,20.6726074 10.1101685,21.3095856 9.71878055,21.7009735 Z" id="Shape"></path>
                    <path d="M9.00878906,11.7707062 C9.74647523,11.7707062 10.4399872,11.4834595 10.9616089,10.9618378 C12.0384979,9.88494873 12.0384979,8.13308719 10.9616089,7.05619811 C10.4399872,6.53457645 9.74647523,6.24732973 9.00878906,6.24732973 C8.27110289,6.24732973 7.57759096,6.53457645 7.05596924,7.05619811 C5.97930908,8.13308719 5.97930908,9.88494873 7.05596924,10.9618378 C7.57759096,11.4834595 8.27110289,11.7707062 9.00878906,11.7707062 Z M8.2990265,8.2990265 C8.48854066,8.10951234 8.74076842,8.00514223 9.00878906,8.00514223 C9.27703857,8.00514223 9.52903746,8.10951234 9.71878055,8.2990265 C10.1101685,8.69064328 10.1101685,9.32739258 9.71878055,9.71878055 C9.52926633,9.90852357 9.27703857,10.0128937 9.00901793,10.0128937 C8.74076842,10.0128937 8.48854066,9.90852357 8.2990265,9.71878055 C7.90763854,9.32739258 7.90763854,8.69041441 8.2990265,8.2990265 Z" id="Shape"></path>
                </g>
            </g>
        </g>
    </g>
</svg>