<?xml version="1.0" encoding="UTF-8"?>
<svg width="78px" height="73px" viewBox="0 0 78 73" version="1.1" xmlns="http://www.w3.org/2000/svg" xmlns:xlink="http://www.w3.org/1999/xlink">
    <!-- Generator: Sketch 51.2 (57519) - http://www.bohemiancoding.com/sketch -->
    <title>Group 4</title>
    <desc>Created with Sketch.</desc>
    <defs></defs>
    <g id="Page-1" stroke="none" stroke-width="1" fill="none" fill-rule="evenodd">
        <g id="Upload-Copy-4" transform="translate(-397.000000, -248.000000)" fill-rule="nonzero">
            <g id="Group-4" transform="translate(398.000000, 248.000000)">
                <g id="painting" transform="translate(16.000000, 18.000000)" fill="#000000">
                    <path d="M44.2498398,45 L0.750160195,45 C0.336112998,45 0,44.664917 0,44.2498398 L0,0.750160195 C0,0.335083008 0.336112998,-2.84217094e-14 0.750160195,-2.84217094e-14 L44.2498398,-2.84217094e-14 C44.663887,-2.84217094e-14 45,0.335083008 45,0.750160195 L45,44.2498398 C45,44.664917 44.663887,45 44.2498398,45 Z M1.49997709,43.5000229 L43.5000229,43.5000229 L43.5000229,1.49997709 L1.49997709,1.49997709 L1.49997709,43.5000229 Z" id="Shape"></path>
                    <path d="M41.2498855,42.0000458 L3.75011446,42.0000458 C3.33606718,42.0000458 2.99995418,41.6646194 2.99995418,41.2498855 L2.99995418,3.75011446 C2.99995418,3.33538058 3.33606718,2.99995418 3.75011446,2.99995418 L41.2498855,2.99995418 C41.6639328,2.99995418 42.0000458,3.33538058 42.0000458,3.75011446 L42.0000458,41.2498855 C42.0000458,41.6646194 41.6639328,42.0000458 41.2498855,42.0000458 Z M4.49993136,40.5000686 L40.5000686,40.5000686 L40.5000686,4.49993136 L4.49993136,4.49993136 L4.49993136,40.5000686 Z" id="Shape"></path>
                    <path d="M11.25,14.2499542 C9.59552763,14.2499542 8.25004582,12.9044724 8.25004582,11.25 C8.25004582,9.59552763 9.59552763,8.25004582 11.25,8.25004582 C12.9044724,8.25004582 14.2499542,9.59552763 14.2499542,11.25 C14.2499542,12.9044724 12.9044724,14.2499542 11.25,14.2499542 Z M11.25,9.75002291 C10.4225922,9.75002291 9.75002291,10.4225922 9.75002291,11.25 C9.75002291,12.0774078 10.4225922,12.7499771 11.25,12.7499771 C12.0774078,12.7499771 12.7499771,12.0774078 12.7499771,11.25 C12.7499771,10.4225922 12.0774078,9.75002291 11.25,9.75002291 Z" id="Shape"></path>
                    <path d="M11.25,9.75002291 C10.8359527,9.75002291 10.4998398,9.4145966 10.4998398,8.99986271 L10.4998398,7.49988554 C10.4998398,7.08515165 10.8359527,6.75006864 11.25,6.75006864 C11.6640473,6.75006864 12.0001602,7.08515165 12.0001602,7.49988554 L12.0001602,8.99986271 C12.0001602,9.4145966 11.6640473,9.75002291 11.25,9.75002291 Z" id="Shape"></path>
                    <path d="M11.25,15.7499314 C10.8359527,15.7499314 10.4998398,15.4148483 10.4998398,15.0001145 L10.4998398,13.5001373 C10.4998398,13.0854034 10.8359527,12.7499771 11.25,12.7499771 C11.6640473,12.7499771 12.0001602,13.0854034 12.0001602,13.5001373 L12.0001602,15.0001145 C12.0001602,15.4148483 11.6640473,15.7499314 11.25,15.7499314 Z" id="Shape"></path>
                    <path d="M15.0001145,12.0001602 L13.5001373,12.0001602 C13.0860901,12.0001602 12.7499771,11.6647339 12.7499771,11.25 C12.7499771,10.8352661 13.0860901,10.4998398 13.5001373,10.4998398 L15.0001145,10.4998398 C15.4141617,10.4998398 15.7499314,10.8352661 15.7499314,11.25 C15.7499314,11.6647339 15.4141617,12.0001602 15.0001145,12.0001602 Z" id="Shape"></path>
                    <path d="M8.99986271,12.0001602 L7.49988554,12.0001602 C7.08583834,12.0001602 6.75006864,11.6647339 6.75006864,11.25 C6.75006864,10.8352661 7.08583834,10.4998398 7.49988554,10.4998398 L8.99986271,10.4998398 C9.41390991,10.4998398 9.75002291,10.8352661 9.75002291,11.25 C9.75002291,11.6647339 9.41390991,12.0001602 8.99986271,12.0001602 Z" id="Shape"></path>
                    <path d="M9.6593857,10.4092026 C9.46712496,10.4092026 9.27520752,10.3357315 9.12895207,10.189476 L7.7196121,8.78013615 C7.42710111,8.48693848 7.42710111,8.01315308 7.7196121,7.7196121 C8.01212309,7.42641451 8.48762508,7.42641451 8.78013615,7.7196121 L10.189476,9.12895207 C10.4826736,9.42214966 10.4826736,9.89627836 10.189476,10.189476 C10.0425339,10.3357315 9.85130314,10.4092026 9.6593857,10.4092026 Z" id="Shape"></path>
                    <path d="M14.2499542,15.0001145 C14.0580368,15.0001145 13.8661194,14.9266433 13.7198638,14.7803879 L12.310524,13.3710479 C12.0173264,13.0778503 12.0173264,12.6037216 12.310524,12.310524 C12.6037216,12.0173264 13.078537,12.0173264 13.3710479,12.310524 L14.7803879,13.7198638 C15.0728989,14.0130615 15.0728989,14.4868469 14.7803879,14.7803879 C14.6341324,14.9266433 14.4418716,15.0001145 14.2499542,15.0001145 Z" id="Shape"></path>
                    <path d="M12.8406143,10.4092026 C12.6486969,10.4092026 12.4567795,10.3357315 12.310524,10.189476 C12.0173264,9.89627836 12.0173264,9.42214966 12.310524,9.12895207 L13.7198638,7.7196121 C14.0123749,7.42641451 14.4868469,7.42641451 14.7803879,7.7196121 C15.0735855,8.01315308 15.0735855,8.48693848 14.7803879,8.78013615 L13.3710479,10.189476 C13.2247925,10.3357315 13.032875,10.4092026 12.8406143,10.4092026 Z" id="Shape"></path>
                    <path d="M8.25004582,15.0001145 C8.05812838,15.0001145 7.86586764,14.9266433 7.7196121,14.7803879 C7.42641451,14.4868469 7.42641451,14.0130615 7.7196121,13.7198638 L9.12895207,12.310524 C9.42146297,12.0173264 9.89627836,12.0173264 10.189476,12.310524 C10.4826736,12.6037216 10.4826736,13.0778503 10.189476,13.3710479 L8.78013615,14.7803879 C8.63388062,14.9266433 8.44196317,15.0001145 8.25004582,15.0001145 Z" id="Shape"></path>
                    <path d="M27.7500916,42.0000458 L8.25004582,42.0000458 C7.98534396,42.0000458 7.73986816,41.8596267 7.60494234,41.633377 C7.47001652,41.4054107 7.46486666,41.1231995 7.59155273,40.8914566 C8.03787231,40.0733184 8.49311824,39.1710663 8.95111084,38.2650376 C10.036354,36.1168671 11.1583328,33.8969421 12.2288132,32.6602935 C13.693428,30.9697724 15.8055496,29.9998855 18.0234146,29.9998855 C20.2409363,29.9998855 22.3523712,30.9697724 23.8169861,32.6609802 C24.8692703,33.8746262 25.9026718,35.9476089 26.9968414,38.142128 C27.4627304,39.0756226 27.9444122,40.0410461 28.4085846,40.8914566 C28.5352707,41.1238862 28.5301208,41.4060974 28.3948516,41.633377 C28.2599258,41.8596267 28.0147934,42.0000458 27.7500916,42.0000458 Z M9.49562068,40.5000686 L26.5058899,40.5000686 C26.2199021,39.9449158 25.9349441,39.3719101 25.6544495,38.8109207 C24.6495437,36.7966461 23.6106491,34.713707 22.6823044,33.6428833 L22.6823044,33.6418533 C21.5040207,32.2805786 19.8052597,31.4998627 18.0234146,31.4998627 C16.2412262,31.4998627 14.5424653,32.2805786 13.3628082,33.6418533 C12.4131775,34.7377395 11.3341141,36.8745804 10.2900696,38.94001 C10.0243378,39.4673538 9.75894926,39.9916077 9.49562068,40.5000686 Z" id="Shape"></path>
                    <path d="M37.5001145,42.0000458 L27.7500916,42.0000458 C27.4754333,42.0000458 27.2227478,41.8500137 27.0915986,41.6093445 C26.6154099,40.7369614 26.1285782,39.7619248 25.658226,38.8191604 C24.7769165,37.0537949 23.8657379,35.2283477 23.0280304,34.0837097 C22.7849579,33.7524033 22.8546524,33.2865142 23.1838989,33.0396652 C26.3737107,30.6546021 30.9241104,31.1572266 33.5443496,34.1805268 L33.5443496,34.1812134 C35.255127,36.1560059 36.8076324,38.413353 38.1592942,40.89077 C38.2859802,41.1231995 38.2808304,41.4054107 38.1459045,41.6323471 C38.0099487,41.8596267 37.7648163,42.0000458 37.5001145,42.0000458 Z M28.1977844,40.5000686 L36.2136841,40.5000686 C35.0683594,38.5499954 33.7918853,36.7588806 32.4103546,35.1631165 L32.4103546,35.1638031 C30.461998,32.9153824 27.1897888,32.3983383 24.6811294,33.8461304 C25.4536057,35.0491333 26.2380981,36.6208648 27.000618,38.1486511 C27.3950958,38.9393234 27.8009033,39.7529983 28.1977844,40.5000686 Z" id="Shape"></path>
                    <path d="M8.25004582,42.0000458 L3.75011446,42.0000458 C3.33606718,42.0000458 2.99995418,41.6646194 2.99995418,41.2498855 L2.99995418,38.2499314 C2.99995418,35.6355286 7.52323148,33.9937592 11.778717,33.7760925 C12.0547485,33.7633896 12.321167,33.9044952 12.462616,34.1444778 C12.6044082,34.3844604 12.6006318,34.6845245 12.4536895,34.9214172 C11.7515945,36.0509491 11.0062408,37.524147 10.286293,38.9489365 C9.82212064,39.8669815 9.36069486,40.7798767 8.90853882,41.6086578 C8.77738957,41.8500137 8.52436063,42.0000458 8.25004582,42.0000458 Z M4.49993136,40.5000686 L7.80235295,40.5000686 C8.17966459,39.7921372 8.56281278,39.0337372 8.94733427,38.2725906 C9.43862915,37.3013306 9.94056697,36.3074112 10.4401016,35.4013824 C7.00344088,35.8477021 4.49993136,37.1887207 4.49993136,38.2499314 L4.49993136,40.5000686 Z" id="Shape"></path>
                    <path d="M41.2498855,42.0000458 L37.5001145,42.0000458 C37.2254563,42.0000458 36.9727707,41.8500137 36.8416214,41.6093445 C35.7096863,39.5339585 34.4235992,37.610321 33.0200958,35.891304 C32.828865,35.6571579 32.7976226,35.3310013 32.939415,35.0638962 C33.080864,34.7971344 33.3689117,34.6416092 33.6703491,34.6694184 C36.2033844,34.9035645 39.5998764,35.4367447 41.5358735,36.2346267 C41.8170547,36.3503266 42.0000458,36.6239548 42.0000458,36.9277954 L42.0000458,41.2498855 C42.0000458,41.6646194 41.6639328,42.0000458 41.2498855,42.0000458 Z M37.9426575,40.5000686 L40.5000686,40.5000686 L40.5000686,37.4468994 C39.2603302,37.0184326 37.3861313,36.628418 35.2784729,36.356163 C36.2332535,37.6515198 37.1248627,39.038887 37.9426575,40.5000686 Z" id="Shape"></path>
                    <path d="M32.2500229,26.2501145 C31.8359756,26.2501145 31.4998627,25.9146881 31.4998627,25.4999542 C31.4998627,24.6728897 30.8272934,23.9999771 29.9998855,23.9999771 C29.5858383,23.9999771 29.2500686,23.6648941 29.2500686,23.2501602 C29.2500686,22.835083 29.5858383,22.5 29.9998855,22.5 C30.838623,22.5 31.5983963,22.845726 32.1429062,23.4022522 C32.8178787,22.4062729 33.9583969,21.7498398 35.2499771,21.7498398 C35.6640244,21.7498398 36.0001373,22.0852661 36.0001373,22.5 C36.0001373,22.9147339 35.6640244,23.2501602 35.2499771,23.2501602 C34.009552,23.2501602 32.9998398,24.2595291 32.9998398,25.4999542 C32.9998398,25.9146881 32.6640701,26.2501145 32.2500229,26.2501145 Z" id="Shape"></path>
                    <path d="M35.2499771,15.0001145 L27.7500916,15.0001145 C26.0956192,15.0001145 24.7501373,13.6546326 24.7501373,12.0001602 C24.7501373,10.242691 26.3009262,8.82751465 28.0566788,9.01634221 C28.6386108,7.66811373 29.9840927,6.75006864 31.4998627,6.75006864 C33.0156326,6.75006864 34.3611145,7.66811373 34.9433899,9.01634221 C36.6953659,8.82991793 38.2499314,10.242691 38.2499314,12.0001602 C38.2499314,13.6546326 36.9044495,15.0001145 35.2499771,15.0001145 Z M27.7500916,10.4998398 C26.9226837,10.4998398 26.2501145,11.1727524 26.2501145,12.0001602 C26.2501145,12.8272247 26.9226837,13.5001373 27.7500916,13.5001373 L35.2499771,13.5001373 C36.077385,13.5001373 36.7499542,12.8272247 36.7499542,12.0001602 C36.7499542,10.9966279 35.7337188,10.2104187 34.7123337,10.6055832 C34.5059967,10.6876373 34.2749405,10.6725312 34.0799331,10.5643845 C33.8856125,10.4579544 33.7486267,10.2711868 33.7050247,10.0545502 C33.4949112,9.00913236 32.5679397,8.25004582 31.4998627,8.25004582 C30.4321289,8.25004582 29.5051575,9.00913236 29.2950439,10.0545502 C29.2514419,10.2711868 29.1141128,10.4579544 28.9201355,10.5643845 C28.7258149,10.6718445 28.4947586,10.6866074 28.2877349,10.6055832 C28.1078339,10.5358887 27.9269028,10.4998398 27.7500916,10.4998398 Z" id="Shape"></path>
                    <path d="M20.2498627,25.4999542 L12.7499771,25.4999542 C11.0955048,25.4999542 9.75002291,24.1544724 9.75002291,22.5 C9.75002291,20.7428741 11.303215,19.3283844 13.0569077,19.5165253 C13.6388398,18.1679535 14.9843216,17.2499084 16.5000916,17.2499084 C18.0158615,17.2499084 19.3613433,18.1679535 19.9432754,19.5165253 C21.6976547,19.3297577 23.2501602,20.7428741 23.2501602,22.5 C23.2501602,24.1544724 21.904335,25.4999542 20.2498627,25.4999542 Z M12.7499771,21.0000229 C11.9229126,21.0000229 11.25,21.6725922 11.25,22.5 C11.25,23.3274078 11.9229126,23.9999771 12.7499771,23.9999771 L20.2498627,23.9999771 C21.0772705,23.9999771 21.7498398,23.3274078 21.7498398,22.5 C21.7498398,21.4964676 20.7329178,20.7119751 19.7122192,21.1057663 C19.5058823,21.1867905 19.2741394,21.1716843 19.0801621,21.0645676 C18.8858413,20.9581375 18.7485122,20.7713699 18.7049102,20.5543899 C18.4951401,19.5089722 17.5681687,18.7498855 16.5000916,18.7498855 C15.4320144,18.7498855 14.505043,19.5089722 14.2949295,20.5543899 C14.2516709,20.7713699 14.1143418,20.9581375 13.920021,21.0645676 C13.7257004,21.1716843 13.4939575,21.1867905 13.2876206,21.1057663 C13.1077194,21.0360718 12.9271316,21.0000229 12.7499771,21.0000229 Z" id="Shape"></path>
                </g>
                <g id="Group" transform="translate(42.000000, 0.000000)" stroke="#000000" stroke-linecap="round" stroke-linejoin="round">
                    <path d="M0.5,0.5 L3.5,3.5" id="Line-4"></path>
                    <path d="M0.5,0.5 L3.5,3.5" id="Line-4-Copy" transform="translate(2.000000, 2.000000) scale(-1, 1) translate(-2.000000, -2.000000) "></path>
                </g>
                <g id="Group-Copy" transform="translate(0.000000, 59.000000)" stroke="#000000" stroke-linecap="round" stroke-linejoin="round">
                    <path d="M0.375,0.375 L2.625,2.625" id="Line-4"></path>
                    <path d="M0.375,0.375 L2.625,2.625" id="Line-4-Copy" transform="translate(1.500000, 1.500000) scale(-1, 1) translate(-1.500000, -1.500000) "></path>
                </g>
                <g id="Group-Copy-2" transform="translate(72.000000, 61.000000)" stroke="#000000" stroke-linecap="round" stroke-linejoin="round">
                    <path d="M0.625,0.625 L4.375,4.375" id="Line-4"></path>
                    <path d="M0.625,0.625 L4.375,4.375" id="Line-4-Copy" transform="translate(2.500000, 2.500000) scale(-1, 1) translate(-2.500000, -2.500000) "></path>
                </g>
                <circle id="Oval-Copy" fill="#000000" cx="27" cy="72" r="1"></circle>
                <circle id="Oval-Copy-2" stroke="#000000" cx="5.5" cy="25.5" r="1.5"></circle>
                <circle id="Oval-Copy-3" stroke="#000000" cx="74" cy="14" r="2"></circle>
            </g>
        </g>
    </g>
</svg>