<?xml version="1.0" encoding="UTF-8"?>
<svg width="59px" height="60px" viewBox="0 0 59 60" version="1.1" xmlns="http://www.w3.org/2000/svg" xmlns:xlink="http://www.w3.org/1999/xlink">
    <!-- Generator: Sketch 51.2 (57519) - http://www.bohemiancoding.com/sketch -->
    <title>problem</title>
    <desc>Created with Sketch.</desc>
    <defs></defs>
    <g id="Page-1" stroke="none" stroke-width="1" fill="none" fill-rule="evenodd">
        <g id="Upload-Copy-4" transform="translate(-812.000000, -255.000000)" fill="#000000" fill-rule="nonzero">
            <g id="problem" transform="translate(812.051724, 255.000000)">
                <path d="M14.9725877,55.2074196 C14.4554094,55.2074196 14.0369152,54.7893823 14.0369152,54.2717471 C14.0369152,50.6610929 16.9759685,47.7229532 20.5866228,47.7229532 C21.104258,47.7229532 21.5222953,48.1414474 21.5222953,48.6586257 C21.5222953,49.1762609 21.104258,49.5942982 20.5866228,49.5942982 C18.0071273,49.5942982 15.9082602,51.6922515 15.9082602,54.2717471 C15.9082602,54.7893823 15.4902229,55.2074196 14.9725877,55.2074196 Z" id="Shape"></path>
                <path d="M24.3293129,49.5952119 L20.5866228,49.5942982 C20.0694444,49.5942982 19.6509503,49.1753473 19.6509503,48.6586257 C19.6509503,48.1414474 20.0703581,47.7229532 20.5866228,47.7229532 L24.3293129,47.7238669 C24.8469481,47.7238669 25.2649854,48.1432749 25.2649854,48.6595394 C25.2649854,49.1771747 24.8460344,49.5952119 24.3293129,49.5952119 Z" id="Shape"></path>
                <path d="M14.9725877,58.0153509 C14.4554094,58.0153509 14.0369152,57.5973136 14.0369152,57.0796784 L14.0369152,54.5403874 C14.0369152,54.0227522 14.4554094,53.6047149 14.9725877,53.6047149 C15.4902229,53.6047149 15.9082602,54.0227522 15.9082602,54.5403874 L15.9082602,57.0796784 C15.9082602,57.5973136 15.4902229,58.0153509 14.9725877,58.0153509 Z" id="Shape"></path>
                <path d="M43.0427632,55.2074196 C42.5255848,55.2074196 42.1070906,54.7893823 42.1070906,54.2717471 C42.1070906,51.6922515 40.0082236,49.5942982 37.4287281,49.5942982 C36.9115497,49.5942982 36.4930556,49.1762609 36.4930556,48.6586257 C36.4930556,48.1414474 36.9115497,47.7229532 37.4287281,47.7229532 C41.0393823,47.7229532 43.9784357,50.6610929 43.9784357,54.2717471 C43.9784357,54.7893823 43.5603984,55.2074196 43.0427632,55.2074196 Z" id="Shape"></path>
                <path d="M33.686038,49.5952119 C33.1697733,49.5952119 32.7503655,49.1771747 32.7503655,48.6595394 C32.7503655,48.1432749 33.1688596,47.7238669 33.686038,47.7238669 L37.4287281,47.7229532 C37.9454496,47.7229532 38.3644006,48.1414474 38.3644006,48.6586257 C38.3644006,49.1753473 37.9463633,49.5942982 37.4287281,49.5942982 L33.686038,49.5952119 Z" id="Shape"></path>
                <path d="M43.0427632,58.0153509 C42.5255848,58.0153509 42.1070906,57.5973136 42.1070906,57.0796784 L42.1070906,54.5403874 C42.1070906,54.0227522 42.5255848,53.6047149 43.0427632,53.6047149 C43.5603984,53.6047149 43.9784357,54.0227522 43.9784357,54.5403874 L43.9784357,57.0796784 C43.9784357,57.5973136 43.5603984,58.0153509 43.0427632,58.0153509 Z" id="Shape"></path>
                <path d="M41.1714181,59.8866959 L16.8439327,59.8866959 C16.3267544,59.8866959 15.9082602,59.4686586 15.9082602,58.9510234 C15.9082602,58.433845 16.3267544,58.0153509 16.8439327,58.0153509 L41.1714181,58.0153509 C41.6890533,58.0153509 42.1070906,58.433845 42.1070906,58.9510234 C42.1070906,59.4686586 41.6890533,59.8866959 41.1714181,59.8866959 Z" id="Shape"></path>
                <path d="M24.3293129,49.5952119 C23.8121345,49.5952119 23.3936404,49.1771747 23.3936404,48.6595394 L23.3936404,45.6647478 C23.3936404,45.1471125 23.8121345,44.7290753 24.3293129,44.7290753 C24.8469481,44.7290753 25.2649854,45.1471125 25.2649854,45.6647478 L25.2649854,48.6595394 C25.2649854,49.1771747 24.8469481,49.5952119 24.3293129,49.5952119 Z" id="Shape"></path>
                <path d="M33.686038,49.5942982 C33.1688596,49.5942982 32.7503655,49.1762609 32.7503655,48.6586257 L32.7503655,45.6647478 C32.7503655,45.1471125 33.1688596,44.7290753 33.686038,44.7290753 C34.2036732,44.7290753 34.6217105,45.1471125 34.6217105,45.6647478 L34.6217105,48.6586257 C34.6217105,49.1762609 34.2036732,49.5942982 33.686038,49.5942982 Z" id="Shape"></path>
                <path d="M29.0076754,47.7229532 C22.816155,47.7229532 17.7796053,42.6864035 17.7796053,36.494883 C17.7796053,35.9777047 18.1980994,35.5592105 18.7152778,35.5592105 C19.232913,35.5592105 19.6509503,35.9777047 19.6509503,36.494883 C19.6509503,41.6543311 23.8482274,45.8516082 29.0076754,45.8516082 C34.1671235,45.8516082 38.3644006,41.6543311 38.3644006,36.494883 C38.3644006,35.9777047 38.7828947,35.5592105 39.3000731,35.5592105 C39.8177083,35.5592105 40.2357456,35.9777047 40.2357456,36.494883 C40.2357456,42.6864035 35.1991959,47.7229532 29.0076754,47.7229532 Z" id="Shape"></path>
                <path d="M18.7152778,37.4314692 C18.1980994,37.4314692 17.7796053,37.013432 17.7796053,36.4957967 L17.7796053,28.0738304 C17.7796053,27.556652 18.1980994,27.1381579 18.7152778,27.1381579 C19.232913,27.1381579 19.6509503,27.556652 19.6509503,28.0738304 L19.6509503,36.4957967 C19.6509503,37.013432 19.232913,37.4314692 18.7152778,37.4314692 Z" id="Shape"></path>
                <path d="M39.3000731,37.432383 C38.7828947,37.432383 38.3644006,37.0143457 38.3644006,36.4967105 L38.3644006,28.0738304 C38.3644006,27.556652 38.7828947,27.1381579 39.3000731,27.1381579 C39.8177083,27.1381579 40.2357456,27.556652 40.2357456,28.0738304 L40.2357456,36.4967105 C40.2357456,37.0143457 39.8177083,37.432383 39.3000731,37.432383 Z" id="Shape"></path>
                <path d="M39.3000731,29.0095029 C38.7828947,29.0095029 38.3644006,28.5914656 38.3644006,28.0738304 C38.3644006,26.0096856 36.6858552,24.3311404 34.6217105,24.3311404 C34.1045322,24.3311404 33.686038,23.913103 33.686038,23.3954678 C33.686038,22.8782895 34.1045322,22.4597953 34.6217105,22.4597953 C37.7179276,22.4597953 40.2357456,24.9776133 40.2357456,28.0738304 C40.2357456,28.5914656 39.8177083,29.0095029 39.3000731,29.0095029 Z" id="Shape"></path>
                <path d="M34.6217105,24.3311404 C34.1045322,24.3311404 33.686038,23.913103 33.686038,23.3954678 L33.686038,19.6527778 C33.686038,19.1355994 34.1045322,18.7171053 34.6217105,18.7171053 C35.1393457,18.7171053 35.557383,19.1355994 35.557383,19.6527778 L35.557383,23.3954678 C35.557383,23.913103 35.1393457,24.3311404 34.6217105,24.3311404 Z" id="Shape"></path>
                <path d="M34.6217105,20.5884503 L27.1363304,20.5884503 C26.619152,20.5884503 26.2006579,20.170413 26.2006579,19.6527778 C26.2006579,19.1355994 26.619152,18.7171053 27.1363304,18.7171053 L34.6217105,18.7171053 C35.1393457,18.7171053 35.557383,19.1355994 35.557383,19.6527778 C35.557383,20.170413 35.1393457,20.5884503 34.6217105,20.5884503 Z" id="Shape"></path>
                <path d="M18.7152778,29.0095029 C18.1980994,29.0095029 17.7796053,28.5914656 17.7796053,28.0738304 C17.7796053,22.9148392 21.9768823,18.7180189 27.1363304,18.7180189 C27.6539656,18.7180189 28.0720029,19.1365132 28.0720029,19.6536915 C28.0720029,20.1713268 27.6539656,20.589364 27.1363304,20.589364 C23.0089546,20.589364 19.6509503,23.9464547 19.6509503,28.0738304 C19.6509503,28.5914656 19.232913,29.0095029 18.7152778,29.0095029 Z" id="Shape"></path>
                <path d="M39.3000731,33.6878655 C39.0606725,33.6878655 38.8212719,33.5960344 38.6385234,33.4137427 L35.8315058,30.6067251 C35.4655519,30.2407712 35.4655519,29.6495796 35.8315058,29.2836257 C36.1974598,28.9176718 36.7886513,28.9176718 37.1546053,29.2836257 L39.9616228,32.0906433 C40.3275767,32.4565972 40.3275767,33.0477888 39.9616228,33.4137427 C39.7793311,33.5960344 39.5394737,33.6878655 39.3000731,33.6878655 Z" id="Shape"></path>
                <path d="M29.0076754,32.752193 C24.8113122,32.752193 21.2294408,30.8502375 21.0786732,30.7693713 C20.6240863,30.5244883 20.4536732,29.9584247 20.6980994,29.5024671 C20.9420688,29.0487939 21.5072186,28.8738122 21.9650036,29.1209795 C21.9974415,29.1387975 25.2960526,30.880848 29.0076754,30.880848 C32.7380299,30.880848 36.0169956,29.1397112 36.0494335,29.1209795 C36.5035636,28.8765533 37.0723684,29.0469663 37.3163378,29.5015533 C37.5607639,29.9565972 37.3903509,30.5244883 36.9357639,30.7684575 C36.7859101,30.8502375 33.2040387,32.752193 29.0076754,32.752193 Z" id="Shape"></path>
                <path d="M18.7152778,33.6878655 C18.4758772,33.6878655 18.2364766,33.5960344 18.0537281,33.4137427 C17.6877742,33.0477888 17.6877742,32.4565972 18.0537281,32.0906433 L20.8607456,29.2836257 C21.2266995,28.9176718 21.8178911,28.9176718 22.183845,29.2836257 C22.5497989,29.6495796 22.5497989,30.2407712 22.183845,30.6067251 L19.3768275,33.4137427 C19.1945358,33.5960344 18.9546784,33.6878655 18.7152778,33.6878655 Z" id="Shape"></path>
                <path d="M26.2006579,51.4656433 C25.9612573,51.4656433 25.7218567,51.3738122 25.5391082,51.1915205 L23.6677632,49.3210891 C23.3018092,48.9551352 23.3018092,48.3639437 23.6677632,47.9979897 C24.0337171,47.6324926 24.6249087,47.6324926 24.9908626,47.9979897 L26.8622076,49.8684211 C27.2281615,50.234375 27.2281615,50.8255665 26.8622076,51.1915205 C26.6799159,51.3738122 26.4400585,51.4656433 26.2006579,51.4656433 Z" id="Shape"></path>
                <path d="M26.2006579,51.4656433 C25.8086622,51.4656433 25.4436221,51.2175621 25.3138706,50.8255665 C25.1498538,50.3353436 25.4148392,49.8049159 25.9050621,49.6422697 L28.7120796,48.7065972 C29.2050439,48.5416667 29.7318165,48.8075658 29.8958333,49.2977888 C30.0593932,49.7880117 29.794408,50.3184393 29.3041849,50.4815425 L26.4971674,51.417215 C26.3980263,51.4496527 26.2979715,51.4656433 26.2006579,51.4656433 Z" id="Shape"></path>
                <path d="M31.814693,51.4656433 C31.5752924,51.4656433 31.3358918,51.3738122 31.1531433,51.1915205 C30.7871894,50.8255665 30.7871894,50.234375 31.1531433,49.8684211 L33.0244883,47.9979897 C33.3904422,47.6324926 33.9816338,47.6324926 34.3475877,47.9979897 C34.7135416,48.3639437 34.7135416,48.9551352 34.3475877,49.3210891 L32.4762427,51.1915205 C32.293951,51.3738122 32.0540936,51.4656433 31.814693,51.4656433 Z" id="Shape"></path>
                <path d="M31.814693,51.4656433 C31.7173794,51.4656433 31.6173246,51.4496527 31.5190972,51.417215 L28.7120796,50.4815425 C28.2227705,50.3184393 27.9568713,49.7889254 28.1208882,49.2977888 C28.2844481,48.8084795 28.8093932,48.5416667 29.3041849,48.7065972 L32.1112025,49.6422697 C32.6005117,49.8049159 32.8664108,50.3344298 32.7028509,50.8255665 C32.5717288,51.2175621 32.2066887,51.4656433 31.814693,51.4656433 Z" id="Shape"></path>
                <path d="M41.1714181,59.8866959 C40.6542398,59.8866959 40.2357456,59.4686586 40.2357456,58.9510234 C40.2357456,58.433845 40.6542398,58.0153509 41.1714181,58.0153509 C41.6881396,58.0153509 42.1070906,57.5963999 42.1070906,57.0796784 C42.1070906,56.5625 42.5255848,56.1440058 43.0427632,56.1440058 C43.5603984,56.1440058 43.9784357,56.5625 43.9784357,57.0796784 C43.9784357,58.6275585 42.7188414,59.8866959 41.1714181,59.8866959 Z" id="Shape"></path>
                <path d="M16.8439327,59.8866959 C15.2965095,59.8866959 14.0369152,58.6275585 14.0369152,57.0796784 C14.0369152,56.5625 14.4554094,56.1440058 14.9725877,56.1440058 C15.4902229,56.1440058 15.9082602,56.5625 15.9082602,57.0796784 C15.9082602,57.5963999 16.3276681,58.0153509 16.8439327,58.0153509 C17.361568,58.0153509 17.7796053,58.433845 17.7796053,58.9510234 C17.7796053,59.4686586 17.361568,59.8866959 16.8439327,59.8866959 Z" id="Shape"></path>
                <path d="M29.0360014,55.2083333 C28.5183662,55.2083333 28.0953034,54.790296 28.0953034,54.2726608 C28.0953034,53.7554825 28.5092288,53.3369883 29.0254935,53.3369883 L29.0360014,53.3369883 C29.5522661,53.3369883 29.9716739,53.7554825 29.9716739,54.2726608 C29.9716739,54.790296 29.5522661,55.2083333 29.0360014,55.2083333 Z" id="Shape"></path>
                <path d="M6.57986105,33.6851242 C6.06222585,33.6851242 5.63916304,33.267087 5.63916304,32.7494517 C5.63916304,32.2322735 6.05308842,31.8137792 6.5693531,31.8137792 L6.57986105,31.8137792 C7.09612573,31.8137792 7.51553357,32.2322735 7.51553357,32.7494517 C7.51553357,33.267087 7.09612573,33.6851242 6.57986105,33.6851242 Z" id="Shape"></path>
                <path d="M6.55153509,36.4939694 C2.94088082,36.4939694 0.00182748538,33.5549159 0.00182748538,29.9442618 C0.00182748538,26.3336075 2.93996713,23.3945542 6.55153509,23.3936404 C8.30135228,23.3936404 9.94608912,24.0757492 11.1832968,25.3115862 C12.4200475,26.5487939 13.1012427,28.1935308 13.1012427,29.943348 C13.1012427,33.5549159 10.1621894,36.4939694 6.55153509,36.4939694 Z M6.55336257,25.2649854 C3.97295322,25.2658992 1.87317251,27.3647661 1.87317251,29.9442618 C1.87317251,32.5237573 3.97203953,34.6226243 6.55153509,34.6226243 C9.13103064,34.6226243 11.2298977,32.5237573 11.2298977,29.943348 C11.2298977,27.3638524 9.13194444,25.2649854 6.55336257,25.2649854 Z" id="Shape"></path>
                <path d="M6.55153509,30.8799343 C6.03435673,30.8799343 5.61586257,30.461897 5.61586257,29.9442618 L5.61586257,27.1354166 C5.61586257,26.6182384 6.03435673,26.1997441 6.55153509,26.1997441 C7.06917029,26.1997441 7.4872076,26.6182384 7.4872076,27.1354166 L7.4872076,29.9442618 C7.4872076,30.461897 7.06917029,30.8799343 6.55153509,30.8799343 Z" id="Shape"></path>
                <path d="M14.9725877,30.880848 L12.166484,30.880848 C11.6493055,30.880848 11.2308115,30.4628106 11.2308115,29.9451754 C11.2308115,29.4279971 11.6493055,29.0095029 12.166484,29.0095029 L14.9725877,29.0095029 C15.4902229,29.0095029 15.9082602,29.4279971 15.9082602,29.9451754 C15.9082602,30.4628106 15.4902229,30.880848 14.9725877,30.880848 Z" id="Shape"></path>
                <path d="M51.4930556,33.6869518 C50.9754204,33.6869518 50.5523574,33.2689145 50.5523574,32.7512793 C50.5523574,32.2341008 50.9662829,31.8156068 51.4825475,31.8156068 L51.4930556,31.8156068 C52.0093202,31.8156068 52.4287281,32.2341008 52.4287281,32.7512793 C52.4287281,33.2689145 52.0093202,33.6869518 51.4930556,33.6869518 Z" id="Shape"></path>
                <path d="M51.4647296,36.494883 C47.8540753,36.494883 44.915022,33.5558297 44.915022,29.943348 C44.915022,26.3326937 47.8531615,23.3945542 51.4638158,23.3945542 C55.0744701,23.3945542 58.0135234,26.3336075 58.0135234,29.9442618 C58.0126096,33.5549159 55.0744701,36.4939694 51.4647296,36.494883 Z M51.4638158,25.2658992 C48.8843202,25.2658992 46.786367,27.3638524 46.786367,29.943348 C46.786367,32.5237573 48.8852339,34.623538 51.4647296,34.623538 C54.0433113,34.6226243 56.1412646,32.5237573 56.1421784,29.9442618 C56.1421784,27.3647661 54.0433113,25.2658992 51.4638158,25.2658992 Z" id="Shape"></path>
                <path d="M51.4647296,30.880848 C50.9484649,30.880848 50.5290571,30.4628106 50.5290571,29.9451754 L50.5281433,27.1372442 C50.5281433,26.6209795 50.9466374,26.2015717 51.4638158,26.2015717 C51.9805373,26.2015717 52.3994883,26.6200657 52.3994883,27.1372442 L52.4004021,29.9451754 C52.4004021,30.461897 51.9823648,30.880848 51.4647296,30.880848 Z" id="Shape"></path>
                <path d="M45.8497807,30.8817616 L43.0427632,30.880848 C42.5255848,30.880848 42.1070906,30.461897 42.1070906,29.9451754 C42.1070906,29.4279971 42.5264985,29.0095029 43.0427632,29.0095029 L45.8497807,29.0104166 C46.3674159,29.0104166 46.7854532,29.4298246 46.7854532,29.9460891 C46.7854532,30.4637244 46.3665022,30.8817616 45.8497807,30.8817616 Z" id="Shape"></path>
                <path d="M45.5783991,17.1463815 C45.0612208,17.1463815 44.6381579,16.7278875 44.6381579,16.210709 C44.6381579,15.6930738 45.0516264,15.2750365 45.568348,15.2750365 L45.5783991,15.2750365 C46.0951206,15.2750365 46.5140716,15.6930738 46.5140716,16.210709 C46.5140716,16.7278875 46.0951206,17.1463815 45.5783991,17.1463815 Z" id="Shape"></path>
                <path d="M45.5505299,19.9543129 C45.5496163,19.9543129 45.5496163,19.9543129 45.5505299,19.9543129 C41.9385051,19.9543129 39.0008223,17.0152595 39.0008223,13.4027778 C39.0008223,9.79166667 41.9385051,6.85307018 45.5496163,6.85307018 C49.1602704,6.85307018 52.0984101,9.79166667 52.0984101,13.4027778 C52.0984101,17.013432 49.1602704,19.9524854 45.5505299,19.9543129 Z M45.5496163,8.7244152 C42.9696637,8.7244152 40.8721674,10.8228253 40.8721674,13.4027778 C40.8721674,15.9831871 42.9696637,18.0829678 45.5496163,18.0829678 C48.1281981,18.0811404 50.227065,15.9822735 50.227065,13.4027778 C50.227065,10.8228253 48.1291118,8.7244152 45.5496163,8.7244152 Z" id="Shape"></path>
                <path d="M45.5505299,14.3402778 C45.0338084,14.3402778 44.6148574,13.9217836 44.6148574,13.4055191 L44.6130299,10.5975877 C44.6130299,10.0799525 45.0310673,9.6610014 45.5477888,9.6610014 L45.5487025,9.6610014 C46.0649671,9.6610014 46.484375,10.0790387 46.484375,10.5957602 L46.4862025,13.4036915 C46.4862025,13.9208699 46.0667946,14.3402778 45.5505299,14.3402778 Z" id="Shape"></path>
                <path d="M39.5938414,20.294682 C39.3544408,20.294682 39.1150402,20.2028509 38.9322917,20.0205592 C38.5663378,19.6546053 38.5663378,19.0625 38.9322917,18.6974598 L40.9178545,16.7137244 C41.2838084,16.3482274 41.875,16.3482274 42.2409539,16.7137244 C42.6069078,17.0796784 42.6069078,17.6722405 42.2409539,18.0368239 L40.2553911,20.0205592 C40.0730994,20.2028509 39.833242,20.294682 39.5938414,20.294682 Z" id="Shape"></path>
                <path d="M29.037829,10.2923977 C28.5201937,10.2923977 28.0971309,9.87436035 28.0971309,9.35672515 C28.0971309,8.83908994 28.5110563,8.42105263 29.0273209,8.42105263 L29.037829,8.42105263 C29.5540936,8.42105263 29.9735015,8.83908994 29.9735015,9.35672515 C29.9735015,9.87436035 29.5540936,10.2923977 29.037829,10.2923977 Z" id="Shape"></path>
                <path d="M29.0085892,13.1012427 C29.0076754,13.1012427 29.0076754,13.1012427 29.0085892,13.1012427 C25.3970212,13.1012427 22.4579678,10.1621894 22.4579678,6.5497076 C22.4579678,2.93905333 25.3970212,0 29.0076754,0 C32.6183297,0 35.557383,2.93905333 35.557383,6.5497076 C35.557383,10.1594481 32.6192434,13.0994152 29.0085892,13.1012427 Z M29.0076754,1.87134503 C26.4281799,1.87134503 24.3293129,3.97021193 24.3293129,6.5497076 C24.3293129,9.13011696 26.4281799,11.2298977 29.0076754,11.2298977 C31.587171,11.2280702 33.686038,9.12920327 33.686038,6.5497076 C33.686038,3.97021193 31.587171,1.87134503 29.0076754,1.87134503 Z" id="Shape"></path>
                <path d="M29.0076754,7.4872076 C28.4904971,7.4872076 28.0720029,7.06917029 28.0720029,6.55153509 L28.0720029,3.74269006 C28.0720029,3.22505485 28.4904971,2.80701754 29.0076754,2.80701754 C29.5253106,2.80701754 29.943348,3.22505485 29.943348,3.74269006 L29.943348,6.55153509 C29.943348,7.06917029 29.5253106,7.4872076 29.0076754,7.4872076 Z" id="Shape"></path>
                <path d="M29.0095029,15.9082602 C28.4923246,15.9082602 28.0738304,15.4902229 28.0738304,14.9725877 L28.0738304,12.1655702 C28.0738304,11.6483918 28.4923246,11.2298977 29.0095029,11.2298977 C29.5271381,11.2298977 29.9451754,11.6483918 29.9451754,12.1655702 L29.9451754,14.9725877 C29.9451754,15.4902229 29.5271381,15.9082602 29.0095029,15.9082602 Z" id="Shape"></path>
                <path d="M12.4986294,17.1422697 C11.981451,17.1422697 11.5583882,16.7242325 11.5583882,16.2065972 C11.5583882,15.6894188 11.9718567,15.2709247 12.4885782,15.2709247 L12.4986294,15.2709247 C13.0153509,15.2709247 13.4343019,15.6894188 13.4343019,16.2065972 C13.4343019,16.7242325 13.0153509,17.1422697 12.4986294,17.1422697 Z" id="Shape"></path>
                <path d="M12.4689327,19.9524854 C10.7182018,19.9524854 9.07300807,19.2703765 7.83625731,18.0322551 C6.60042035,16.7955043 5.91831135,15.149397 5.91922515,13.4004935 C5.91922515,9.78983918 8.85690784,6.85078585 12.4680189,6.85078585 C16.0786732,6.85078585 19.0168129,9.78983918 19.0168129,13.4004935 C19.0177265,17.0106908 16.0805007,19.9492873 12.4689327,19.9524854 Z M12.4680189,8.72213088 C9.88806655,8.72213088 7.79057018,10.8209978 7.79057018,13.4004935 C7.79057018,14.6509503 8.27713813,15.8260234 9.16027041,16.7100695 C10.042489,17.5936586 11.2175621,18.0811404 12.4671053,18.0811404 C15.0475146,18.078856 17.1463815,15.9795322 17.1454678,13.4004935 C17.1454678,10.8209978 15.0475146,8.72213088 12.4680189,8.72213088 Z" id="Shape"></path>
                <path d="M12.4680189,14.3375366 C11.9503837,14.3375366 11.5323464,13.9190423 11.5323464,13.4018641 L11.5323464,10.5934759 C11.5323464,10.0762975 11.9503837,9.65780339 12.4680189,9.65780339 C12.9851974,9.65780339 13.4036915,10.0762975 13.4036915,10.5934759 L13.4036915,13.4018641 C13.4036915,13.9190423 12.9851974,14.3375366 12.4680189,14.3375366 Z" id="Shape"></path>
                <path d="M18.423337,20.2928545 C18.1839364,20.2928545 17.9445358,20.2010234 17.7617873,20.0187317 L15.7771381,18.0340826 C15.4116411,17.6681287 15.4116411,17.0769371 15.7771381,16.7109832 C16.1430922,16.3454861 16.7342836,16.3454861 17.1002375,16.7109832 L19.0848867,18.6956323 C19.4508407,19.0615862 19.4508407,19.6527778 19.0848867,20.0187317 C18.9016813,20.2010234 18.6618239,20.2928545 18.423337,20.2928545 Z" id="Shape"></path>
            </g>
        </g>
    </g>
</svg>