<?xml version="1.0" encoding="UTF-8"?>
<svg width="419px" height="139px" viewBox="0 0 419 139" version="1.1" xmlns="http://www.w3.org/2000/svg" xmlns:xlink="http://www.w3.org/1999/xlink">
    <!-- Generator: Sketch 51.2 (57519) - http://www.bohemiancoding.com/sketch -->
    <title>Group 31 Copy 13</title>
    <desc>Created with Sketch.</desc>
    <defs></defs>
    <g id="Page-1" stroke="none" stroke-width="1" fill="none" fill-rule="evenodd">
        <g id="Group-31-Copy-13" fill-rule="nonzero">
            <path d="M366.321267,72.5298138 C366.872269,68.38617 368.281009,64.0324449 370.610668,59.595 C378.254668,44.013 390.161668,36.222 398.687668,36.222 C400.745668,36.222 402.362668,36.516 403.832668,37.398 C407.948668,39.75 410.888668,42.102 412.946668,45.042 C413.828668,46.365 414.416668,48.57 414.416668,50.481 C414.416668,59.301 404.567668,74.736 391.631668,74.736 C388.103668,74.736 384.575668,73.707 381.194668,71.502 C380.312668,74.442 379.871668,77.529 379.871668,80.175 C379.871668,86.643 382.517668,91.2 386.927668,91.2 C398.099668,91.2 407.948668,80.322 413.975668,71.208 C415.592668,68.856 417.503668,68.562 418.679668,71.502 C419.120668,72.825 419.267668,77.088 416.621668,81.057 C410.447668,90.024 398.687668,96.933 387.221668,97.08 C377.070991,97.1891471 370.324052,92.2737297 367.522407,84.9211854 C363.597503,89.1712833 357.581808,92.824577 352.840001,95.022 C352.693001,110.457 337.405001,132.213 327.997001,137.358 C326.527001,138.24 325.057001,138.828 323.293001,138.828 C320.941001,138.828 318.883001,137.799 316.531001,135.153 C314.179001,132.36 311.533001,128.832 311.533001,123.981 C311.533001,122.217 311.974001,120.012 313.003001,117.513 C318.589001,105.459 330.349001,97.962 342.403001,92.964 C343.285001,88.701 342.403001,85.614 338.581001,85.614 C335.347001,85.614 330.496001,87.231 325.939001,90.171 C324.175001,91.494 322.117001,91.788 321.235001,89.583 C319.030001,83.262 322.852001,78.117 328.144001,75.03 C348.430001,63.123 358.132001,49.599 354.457001,45.042 C351.223001,41.073 333.142001,51.51 322.558001,64.152 C320.500001,66.504 318.295001,65.916 317.560001,63.27 C316.237001,58.272 318.295001,52.539 323.881001,47.1 C330.496001,40.779 340.639001,36.075 349.165001,36.075 C354.163001,36.075 358.426001,37.692 361.366001,41.955 C363.130001,44.454 364.306001,47.835 364.306001,50.775 C364.306001,54.009 363.130001,57.978 360.778001,61.8 C357.250001,67.533 349.606001,74.589 341.521001,79.881 C346.960001,80.469 350.635001,84.585 352.105001,88.848 C357.050883,85.5978487 362.26845,79.766699 366.321267,72.5298138 Z M256.396108,68.1426698 C257.621955,65.3644366 259.199364,62.5681248 261.128334,59.889 C272.888334,42.984 284.942334,36.075 292.439334,36.075 C297.731334,36.075 300.965334,38.721 302.288334,42.543 L305.081334,37.986 C306.845334,35.046 309.344334,34.899 311.108334,36.957 C313.607334,39.897 314.930334,46.365 311.108334,54.009 C307.286334,62.094 294.938334,78.117 294.938334,87.966 C294.938334,90.171 295.526334,91.494 296.996334,91.494 C302.288334,91.494 309.638334,81.498 314.489334,71.943 C316.106334,69.003 317.429334,68.856 318.899334,71.943 C319.487334,73.266 320.369334,77.235 318.311334,81.498 C314.489334,89.583 305.081334,97.374 296.114334,97.374 C288.764334,97.374 284.501334,93.552 283.325334,88.113 C279.062334,92.229 272.447334,96.786 266.567334,96.786 C259.699815,96.786 255.320822,92.8227925 253.795259,86.8668602 C248.98701,91.6146954 241.627698,96.639 233.655667,96.639 C224.688667,96.639 219.102667,91.494 219.102667,81.351 C219.102667,78.852 219.396667,75.912 220.131667,72.972 C225.864667,48.57 242.475667,21.375 256.881667,6.234 C259.674667,3.441 262.320667,2.559 265.113667,5.205 C268.347667,7.998 269.964667,12.114 269.964667,15.936 C269.964667,17.994 269.817667,19.611 269.082667,22.11 C264.525667,39.603 248.502667,56.949 235.566667,65.622 C232.626667,73.119 230.715667,79.734 230.715667,84.879 C230.715667,88.407 231.597667,90.906 233.508667,90.906 C240.270667,90.906 248.796667,81.057 254.382667,70.473 C254.964391,69.3542992 255.668711,68.5761403 256.396108,68.1426698 Z M218.531,63.27 C219.413,65.475 219.56,66.945 215.444,66.651 C213.239,66.504 210.446,66.504 207.212,66.798 C210.152,80.469 192.365,93.552 184.868,95.61 C181.634,96.492 177.959,97.227 173.99,97.227 C168.845,97.227 163.847,96.051 159.29,92.523 C153.704,88.554 149,81.792 149,69.591 C149,38.28 178.841,10.497 195.452,4.764 C199.715,3.294 202.949,3 206.183,3 C210.005,3 213.68,4.029 216.179,5.793 C223.235,10.938 225.146,17.847 225.146,21.816 C225.146,24.021 224.558,26.667 223.235,29.754 C221.618,33.576 219.266,39.309 217.649,43.572 C216.914,45.483 215.15,46.953 212.357,44.748 C209.564,42.543 207.065,39.603 207.065,35.046 C207.065,33.429 207.212,31.812 208.388,28.725 C212.504,18.141 213.974,14.025 212.357,12.408 C208.094,7.998 186.044,20.64 172.814,40.779 C165.023,52.686 162.23,65.181 162.23,74.589 C162.23,85.908 165.905,89.73 170.609,89.73 C178.4,89.73 188.837,81.645 195.746,68.709 C191.924,69.444 188.396,69.885 185.456,70.179 C177.812,70.767 172.226,67.386 170.021,62.829 C169.139,60.624 169.874,59.154 172.814,59.154 C178.694,59.007 184.574,57.978 190.013,56.949 C195.011,56.214 199.568,55.332 203.978,55.332 C212.063,55.185 216.473,58.566 218.531,63.27 Z M261.732667,19.611 C261.144667,19.317 257.322667,25.05 252.324667,33.723 C248.502667,40.191 242.034667,51.216 241.005667,53.715 C247.326667,47.541 252.324667,40.779 255.705667,35.046 C260.703667,26.667 262.614667,20.199 261.732667,19.611 Z M268.478334,90.318 C273.329334,90.318 280.091334,81.351 287.294334,69.003 C293.027334,59.007 295.673334,51.804 295.673334,47.982 C295.673334,46.218 295.379334,45.189 293.909334,45.189 C290.969334,45.189 280.826334,54.45 273.329334,66.504 C268.919334,73.413 266.420334,81.204 266.420334,85.908 C266.420334,88.554 267.008334,90.318 268.478334,90.318 Z M340.492001,100.755 C333.583001,105.018 327.997001,111.045 325.057001,115.161 C319.618001,122.805 320.206001,129.273 322.999001,129.273 C324.763001,129.273 328.438001,124.716 332.113001,118.836 C335.347001,113.544 338.287001,107.076 340.492001,100.755 Z M403.391668,44.601 C401.186668,42.837 390.308668,51.804 383.252668,65.916 C384.428668,66.651 385.457668,66.945 386.486668,66.945 C390.014668,66.945 394.718668,62.535 397.658668,58.566 C401.921668,52.833 405.008668,45.924 403.391668,44.601 Z" id="Glaze-Copy-2" fill="#2F2A2F"></path>
            <g id="Group-30">
                <rect id="Rectangle-61" fill="#2F2A2F" x="0" y="0" width="102" height="102"></rect>
                <rect id="Rectangle-61-Copy-10" fill="#FFFFFF" x="13" y="12" width="76" height="76"></rect>
                <polygon id="Rectangle-61-Copy-11" fill="#2571D1" points="13 12 51 12 13 50"></polygon>
                <polygon id="Rectangle-61-Copy-16" fill="#FED322" points="13 50 51 88 13 88"></polygon>
                <polygon id="Rectangle-61-Copy-17" fill="#F94522" points="89 50 89 88 51 88"></polygon>
            </g>
        </g>
    </g>
</svg>