<?xml version="1.0" encoding="UTF-8"?>
<svg width="280px" height="72px" viewBox="0 0 280 72" version="1.1" xmlns="http://www.w3.org/2000/svg" xmlns:xlink="http://www.w3.org/1999/xlink">
    <!-- Generator: Sketch 51.2 (57519) - http://www.bohemiancoding.com/sketch -->
    <title>Group 45 Copy 5</title>
    <desc>Created with Sketch.</desc>
    <defs></defs>
    <g id="Page-1" stroke="none" stroke-width="1" fill="none" fill-rule="evenodd">
        <g id="Group-45-Copy-5">
            <g id="Group-42-Copy-11">
                <g id="Group-40-Copy-7">
                    <path d="M69.4679254,30.4390826 L89.363826,59.1034613 C91.8831459,62.7330904 90.9830624,67.7177985 87.3534333,70.2371184 C86.0139426,71.1668568 84.4223374,71.6650935 82.7918011,71.6650935 L43,71.6650935 C38.581722,71.6650935 35,68.0833715 35,63.6650935 C35,62.0345572 35.4982367,60.4429519 36.4279751,59.1034613 L56.3238756,30.4390826 C58.8431955,26.8094534 63.8279036,25.90937 67.4575328,28.4286899 C68.2423227,28.9734114 68.9232039,29.6542926 69.4679254,30.4390826 Z" id="Rectangle-23-Copy" fill="#FF7700" fill-rule="nonzero"></path>
                    <path d="M118.028947,68.4631579 L118.028947,50.3368421 L116.260526,50.3368421 C114.436842,50.3368421 113,48.9 113,47.0763158 C113,45.2526316 114.436842,43.8157895 116.260526,43.8157895 L118.028947,43.8157895 L118.028947,37.7368421 C118.028947,33.6473684 121.289474,30 125.434211,30 L128.031579,30 C129.855263,30 131.292105,31.4368421 131.292105,33.2605263 C131.292105,35.0842105 129.855263,36.5210526 128.031579,36.5210526 L126.207895,36.5210526 C125.489474,36.5210526 124.992105,37.1289474 124.992105,37.7921053 L124.992105,43.8157895 L128.860526,43.8157895 C130.684211,43.8157895 132.121053,45.2526316 132.121053,47.0763158 C132.121053,48.9 130.684211,50.3368421 128.860526,50.3368421 L124.992105,50.3368421 L124.992105,68.4631579 C124.992105,70.3421053 123.444737,72 121.510526,72 C119.576316,72 118.028947,70.3421053 118.028947,68.4631579 Z M162.736842,57.5763158 C162.736842,65.5342105 156.271053,72 148.202632,72 C140.023684,72 133.668421,65.5894737 133.668421,57.5763158 C133.668421,49.5631579 140.078947,43.2631579 148.202632,43.2631579 C156.215789,43.2631579 162.736842,49.6184211 162.736842,57.5763158 Z M155.939474,57.5763158 C155.939474,53.3210526 152.568421,49.7289474 148.202632,49.7289474 C143.836842,49.7289474 140.410526,53.3210526 140.410526,57.5763158 C140.410526,61.8315789 143.726316,65.5894737 148.202632,65.5894737 C152.623684,65.5894737 155.939474,61.8315789 155.939474,57.5763158 Z M176.165789,55.0894737 L176.165789,68.4631579 C176.165789,70.3421053 174.563158,72 172.628947,72 C170.694737,72 169.092105,70.3421053 169.092105,68.4631579 L169.092105,55.8078947 C169.092105,48.9552632 174.728947,43.2631579 181.692105,43.2631579 C186.5,43.2631579 190.313158,45.75 190.313158,48.2921053 C190.313158,50.1157895 188.876316,51.4421053 187.107895,51.4421053 C184.842105,51.4421053 184.565789,49.7289474 181.636842,49.7289474 C178.486842,49.7289474 176.165789,52.1052632 176.165789,55.0894737 Z M210.981579,68.1868421 C210.981579,70.0105263 209.544737,71.4473684 207.721053,71.4473684 L205.068421,71.4473684 C200.757895,71.4473684 197.442105,68.3526316 197.442105,63.9868421 L197.442105,50.3368421 L195.507895,50.3368421 C193.684211,50.3368421 192.247368,48.9 192.247368,47.0763158 C192.247368,45.3631579 193.684211,43.8157895 195.507895,43.8157895 L197.442105,43.8157895 L197.442105,39.9473684 C197.442105,38.0131579 199.1,36.4657895 200.978947,36.4657895 C202.802632,36.4657895 204.460526,38.0131579 204.460526,39.9473684 L204.460526,43.8157895 L208.384211,43.8157895 C210.152632,43.8157895 211.644737,45.1973684 211.644737,47.0763158 C211.644737,48.9 210.152632,50.3368421 208.384211,50.3368421 L204.460526,50.3368421 L204.460526,63.8763158 C204.460526,64.3736842 204.957895,64.9263158 205.510526,64.9263158 L207.721053,64.9263158 C209.544737,64.9263158 210.981579,66.3631579 210.981579,68.1868421 Z M225.571053,47.3526316 L225.571053,68.4631579 C225.571053,70.3421053 223.968421,72 222.034211,72 C220.1,72 218.497368,70.3421053 218.497368,68.4631579 L218.497368,47.3526316 C218.497368,45.4736842 220.1,43.8157895 222.034211,43.8157895 C223.968421,43.8157895 225.571053,45.4736842 225.571053,47.3526316 Z M217.723684,36.5210526 C217.723684,34.1447368 219.657895,32.2105263 222.034211,32.2105263 C224.410526,32.2105263 226.344737,34.1447368 226.344737,36.5210526 C226.344737,38.8973684 224.410526,40.8315789 222.034211,40.8315789 C219.657895,40.8315789 217.723684,38.8973684 217.723684,36.5210526 Z M244.415789,66.0868421 C247.289474,66.0868421 249.278947,65.0368421 249.278947,63.4894737 C249.278947,59.2342105 233.252632,62.3289474 233.252632,51.7184211 C233.252632,47.1868421 237.784211,43.3184211 244.360526,43.3184211 C251.323684,43.3184211 255.302632,46.3578947 255.302632,48.8447368 C255.302632,50.3368421 254.307895,51.9394737 252.263158,51.9394737 C251.047368,51.9394737 249.942105,50.8894737 249.168421,50.4473684 C247.952632,49.7289474 246.35,49.1210526 244.305263,49.1210526 C241.265789,49.1210526 239.828947,50.3921053 239.828947,51.7184211 C239.828947,56.0289474 256.186842,53.1552632 256.186842,63.2131579 C256.186842,68.6842105 250.55,72 244.360526,72 C237.673684,72 232.976316,68.9605263 232.976316,66.3631579 C232.976316,64.4289474 234.413158,63.1026316 236.181579,63.1026316 C238.613158,63.1026316 239.718421,66.0868421 244.415789,66.0868421 Z M278.513158,68.1868421 C278.513158,70.0105263 277.076316,71.4473684 275.252632,71.4473684 L272.6,71.4473684 C268.289474,71.4473684 264.973684,68.3526316 264.973684,63.9868421 L264.973684,50.3368421 L263.039474,50.3368421 C261.215789,50.3368421 259.778947,48.9 259.778947,47.0763158 C259.778947,45.3631579 261.215789,43.8157895 263.039474,43.8157895 L264.973684,43.8157895 L264.973684,39.9473684 C264.973684,38.0131579 266.631579,36.4657895 268.510526,36.4657895 C270.334211,36.4657895 271.992105,38.0131579 271.992105,39.9473684 L271.992105,43.8157895 L275.915789,43.8157895 C277.684211,43.8157895 279.176316,45.1973684 279.176316,47.0763158 C279.176316,48.9 277.684211,50.3368421 275.915789,50.3368421 L271.992105,50.3368421 L271.992105,63.8763158 C271.992105,64.3736842 272.489474,64.9263158 273.042105,64.9263158 L275.252632,64.9263158 C277.076316,64.9263158 278.513158,66.3631579 278.513158,68.1868421 Z" id="fortist" fill="#000000"></path>
                    <path d="M41.5325512,20.6212113 L68.3994117,59.3287763 C70.9187316,62.9584055 70.0186482,67.9431136 66.389019,70.4624335 C65.0495284,71.3921718 63.4579231,71.8904086 61.8273868,71.8904086 L8.09366581,71.8904086 C3.67538781,71.8904086 0.0936658131,68.3086866 0.0936658131,63.8904086 C0.0936658131,62.2598723 0.591902534,60.668267 1.52164091,59.3287763 L28.3885014,20.6212113 C30.9078213,16.9915821 35.8925294,16.0914987 39.5221585,18.6108186 C40.3069485,19.1555401 40.9878297,19.8364213 41.5325512,20.6212113 Z" id="Rectangle-23" fill="#000000" fill-rule="nonzero"></path>
                    <ellipse id="Oval-6" fill="#FF7700" fill-rule="nonzero" cx="57.0432331" cy="8.11111111" rx="8.03007519" ry="8.11111111"></ellipse>
                </g>
            </g>
        </g>
    </g>
</svg>