<?xml version="1.0" encoding="UTF-8"?>
<svg width="271px" height="137px" viewBox="0 0 271 137" version="1.1" xmlns="http://www.w3.org/2000/svg" xmlns:xlink="http://www.w3.org/1999/xlink">
    <!-- Generator: Sketch 51.2 (57519) - http://www.bohemiancoding.com/sketch -->
    <title>Glaze Copy</title>
    <desc>Created with Sketch.</desc>
    <defs></defs>
    <g id="Page-1" stroke="none" stroke-width="1" fill="none" fill-rule="evenodd">
        <path d="M217.7381,69.8018138 C218.289102,65.65817 219.697842,61.3044449 222.0275,56.867 C229.6715,41.285 241.5785,33.494 250.1045,33.494 C252.1625,33.494 253.7795,33.788 255.2495,34.67 C259.3655,37.022 262.3055,39.374 264.3635,42.314 C265.2455,43.637 265.8335,45.842 265.8335,47.753 C265.8335,56.573 255.9845,72.008 243.0485,72.008 C239.5205,72.008 235.9925,70.979 232.6115,68.774 C231.7295,71.714 231.2885,74.801 231.2885,77.447 C231.2885,83.915 233.9345,88.472 238.3445,88.472 C249.5165,88.472 259.3655,77.594 265.3925,68.48 C267.0095,66.128 268.9205,65.834 270.0965,68.774 C270.5375,70.097 270.6845,74.36 268.0385,78.329 C261.8645,87.296 250.1045,94.205 238.6385,94.352 C228.487824,94.4611471 221.740885,89.5457297 218.93924,82.1931854 C215.014335,86.4432833 208.998641,90.096577 204.256833,92.294 C204.109833,107.729 188.821833,129.485 179.413833,134.63 C177.943833,135.512 176.473833,136.1 174.709833,136.1 C172.357833,136.1 170.299833,135.071 167.947833,132.425 C165.595833,129.632 162.949833,126.104 162.949833,121.253 C162.949833,119.489 163.390833,117.284 164.419833,114.785 C170.005833,102.731 181.765833,95.234 193.819833,90.236 C194.701833,85.973 193.819833,82.886 189.997833,82.886 C186.763833,82.886 181.912833,84.503 177.355833,87.443 C175.591833,88.766 173.533833,89.06 172.651833,86.855 C170.446833,80.534 174.268833,75.389 179.560833,72.302 C199.846833,60.395 209.548833,46.871 205.873833,42.314 C202.639833,38.345 184.558833,48.782 173.974833,61.424 C171.916833,63.776 169.711833,63.188 168.976833,60.542 C167.653833,55.544 169.711833,49.811 175.297833,44.372 C181.912833,38.051 192.055833,33.347 200.581833,33.347 C205.579833,33.347 209.842833,34.964 212.782833,39.227 C214.546833,41.726 215.722833,45.107 215.722833,48.047 C215.722833,51.281 214.546833,55.25 212.194833,59.072 C208.666833,64.805 201.022833,71.861 192.937833,77.153 C198.376833,77.741 202.051833,81.857 203.521833,86.12 C208.467716,82.8698487 213.685282,77.038699 217.7381,69.8018138 Z M107.812941,65.4146698 C109.038788,62.6364366 110.616197,59.8401248 112.545167,57.161 C124.305167,40.256 136.359167,33.347 143.856167,33.347 C149.148167,33.347 152.382167,35.993 153.705167,39.815 L156.498167,35.258 C158.262167,32.318 160.761167,32.171 162.525167,34.229 C165.024167,37.169 166.347167,43.637 162.525167,51.281 C158.703167,59.366 146.355167,75.389 146.355167,85.238 C146.355167,87.443 146.943167,88.766 148.413167,88.766 C153.705167,88.766 161.055167,78.77 165.906167,69.215 C167.523167,66.275 168.846167,66.128 170.316167,69.215 C170.904167,70.538 171.786167,74.507 169.728167,78.77 C165.906167,86.855 156.498167,94.646 147.531167,94.646 C140.181167,94.646 135.918167,90.824 134.742167,85.385 C130.479167,89.501 123.864167,94.058 117.984167,94.058 C111.116648,94.058 106.737655,90.0947925 105.212091,84.1388602 C100.403843,88.8866954 93.0445312,93.911 85.0724997,93.911 C76.1054997,93.911 70.5194997,88.766 70.5194997,78.623 C70.5194997,76.124 70.8134997,73.184 71.5484997,70.244 C77.2814996,45.842 93.8924996,18.647 108.2985,3.506 C111.0915,0.713 113.7375,-0.169 116.5305,2.477 C119.7645,5.27 121.3815,9.386 121.3815,13.208 C121.3815,15.266 121.2345,16.883 120.4995,19.382 C115.9425,36.875 99.9194997,54.221 86.9834996,62.894 C84.0434996,70.391 82.1324997,77.006 82.1324997,82.151 C82.1324997,85.679 83.0144997,88.178 84.9254996,88.178 C91.6874996,88.178 100.2135,78.329 105.7995,67.745 C106.381224,66.6262992 107.085544,65.8481403 107.812941,65.4146698 Z M69.9478327,60.542 C70.8298327,62.747 70.9768328,64.217 66.8608327,63.923 C64.6558327,63.776 61.8628328,63.776 58.6288327,64.07 C61.5688327,77.741 43.7818327,90.824 36.2848327,92.882 C33.0508327,93.764 29.3758327,94.499 25.4068327,94.499 C20.2618327,94.499 15.2638328,93.323 10.7068328,89.795 C5.12083275,85.826 0.41683275,79.064 0.41683275,66.863 C0.41683275,35.552 30.2578327,7.769 46.8688327,2.036 C51.1318328,0.566 54.3658328,0.272 57.5998327,0.272 C61.4218327,0.272 65.0968328,1.301 67.5958327,3.065 C74.6518327,8.21 76.5628328,15.119 76.5628328,19.088 C76.5628328,21.293 75.9748327,23.939 74.6518327,27.026 C73.0348327,30.848 70.6828327,36.581 69.0658327,40.844 C68.3308327,42.755 66.5668328,44.225 63.7738327,42.02 C60.9808328,39.815 58.4818327,36.875 58.4818327,32.318 C58.4818327,30.701 58.6288327,29.084 59.8048328,25.997 C63.9208327,15.413 65.3908327,11.297 63.7738327,9.68 C59.5108328,5.27 37.4608328,17.912 24.2308328,38.051 C16.4398327,49.958 13.6468328,62.453 13.6468328,71.861 C13.6468328,83.18 17.3218328,87.002 22.0258328,87.002 C29.8168328,87.002 40.2538327,78.917 47.1628327,65.981 C43.3408327,66.716 39.8128328,67.157 36.8728327,67.451 C29.2288327,68.039 23.6428328,64.658 21.4378328,60.101 C20.5558328,57.896 21.2908328,56.426 24.2308328,56.426 C30.1108327,56.279 35.9908328,55.25 41.4298328,54.221 C46.4278328,53.486 50.9848327,52.604 55.3948327,52.604 C63.4798328,52.457 67.8898328,55.838 69.9478327,60.542 Z M113.1495,16.883 C112.5615,16.589 108.7395,22.322 103.7415,30.995 C99.9194997,37.463 93.4514996,48.488 92.4224996,50.987 C98.7434996,44.813 103.7415,38.051 107.1225,32.318 C112.1205,23.939 114.0315,17.471 113.1495,16.883 Z M119.895167,87.59 C124.746167,87.59 131.508167,78.623 138.711167,66.275 C144.444167,56.279 147.090167,49.076 147.090167,45.254 C147.090167,43.49 146.796167,42.461 145.326167,42.461 C142.386167,42.461 132.243167,51.722 124.746167,63.776 C120.336167,70.685 117.837167,78.476 117.837167,83.18 C117.837167,85.826 118.425167,87.59 119.895167,87.59 Z M191.908833,98.027 C184.999833,102.29 179.413833,108.317 176.473833,112.433 C171.034833,120.077 171.622833,126.545 174.415833,126.545 C176.179833,126.545 179.854833,121.988 183.529833,116.108 C186.763833,110.816 189.703833,104.348 191.908833,98.027 Z M254.8085,41.873 C252.6035,40.109 241.7255,49.076 234.6695,63.188 C235.8455,63.923 236.8745,64.217 237.9035,64.217 C241.4315,64.217 246.1355,59.807 249.0755,55.838 C253.3385,50.105 256.4255,43.196 254.8085,41.873 Z" id="Glaze-Copy" fill="#000000"></path>
    </g>
</svg>