<?xml version="1.0" encoding="UTF-8"?>
<svg width="80px" height="24px" viewBox="0 0 80 24" version="1.1" xmlns="http://www.w3.org/2000/svg" xmlns:xlink="http://www.w3.org/1999/xlink">
    <!-- Generator: Sketch 52.2 (67145) - http://www.bohemiancoding.com/sketch -->
    <title>Group 8 Copy 3</title>
    <desc>Created with Sketch.</desc>
    <g id="Symbols" stroke="none" stroke-width="1" fill="none" fill-rule="evenodd">
        <g id="Group-8-Copy-3">
            <g id="Group-7-Copy" fill-rule="nonzero">
                <rect id="Rectangle" fill="#2F2A2F" x="0" y="0" width="24" height="24"></rect>
                <polygon id="Rectangle-Copy-2" fill="#FED322" points="12 12 24 -5.32907052e-15 24 12 12 24"></polygon>
                <polygon id="Rectangle-Copy" fill="#FFFFFF" points="0 -5.32907052e-15 12 12 12 24 0 12"></polygon>
            </g>
            <path d="M36.4064603,11.5720054 L39.0228802,11.5720054 L39.0228802,23.6850606 L36.4064603,23.6850606 L36.4064603,22.1345895 C35.6069987,23.3943472 34.2987887,24 32.6514132,24 C29.9380888,24 28,22.1588156 28,19.0094213 L28,11.5720054 L30.6164199,11.5720054 L30.6164199,18.7429341 C30.6164199,20.5841184 31.6823688,21.5531629 33.3297443,21.5531629 C35.0497981,21.5531629 36.4064603,20.5356662 36.4064603,18.064603 L36.4064603,11.5720054 Z M45.2005384,21.2139973 L51.0874832,21.2139973 L51.0874832,23.6850606 L41.6393001,23.6850606 L41.6393001,21.9407806 L47.30821,14.0430686 L41.8815612,14.0430686 L41.8815612,11.5720054 L50.8452221,11.5720054 L50.8452221,13.3162853 L45.2005384,21.2139973 Z M55.5935397,18.7429341 C56.0053836,20.6325707 57.5316285,21.6016151 59.4697174,21.6016151 C60.923284,21.6016151 62.013459,20.9475101 62.5948856,20.0995962 L64.7510094,21.359354 C63.6366083,23.0067295 61.8196501,24 59.4454913,24 C55.448183,24 52.8559892,21.2624495 52.8559892,17.628533 C52.8559892,14.0430686 55.448183,11.2570659 59.2516824,11.2570659 C62.8613728,11.2570659 65.3324361,14.1641992 65.3324361,17.6527591 C65.3324361,18.0161507 65.2839838,18.4037685 65.2355316,18.7429341 L55.5935397,18.7429341 Z M55.5693136,16.6110363 L62.69179,16.6110363 C62.3283984,14.5275908 60.8021534,13.6312248 59.2274563,13.6312248 C57.2651413,13.6312248 55.9327052,14.7940781 55.5693136,16.6110363 Z M67.6339166,23.6850606 L67.6339166,6 L70.2503365,6 L70.2503365,23.6850606 L67.6339166,23.6850606 Z M79.6258412,8.93135935 C77.7846568,8.76177658 76.7671602,9.46433378 76.7671602,11.3297443 L76.7671602,11.5720054 L79.6258412,11.5720054 L79.6258412,14.0915209 L76.7671602,14.0915209 L76.7671602,23.6850606 L74.1507402,23.6850606 L74.1507402,14.0915209 L72.3095559,14.0915209 L72.3095559,11.5720054 L74.1507402,11.5720054 L74.1507402,11.3297443 C74.1507402,8.05921938 75.9919246,6.16958277 79.6258412,6.41184388 L79.6258412,8.93135935 Z" id="uzelf-copy" fill="#2F2A2F"></path>
        </g>
    </g>
</svg>